<svg width="28" height="27" viewBox="0 0 28 27" fill="none" xmlns="http://www.w3.org/2000/svg">
<path d="M3.78383 26.1239H18.049C19.653 26.1239 20.9567 24.8222 20.9567 23.2211V3.81294C20.9567 2.21182 19.6518 0.910156 18.049 0.910156H3.78387C2.17986 0.910156 0.875042 2.21294 0.875042 3.81294L0.875 23.2211C0.875 24.8223 2.18101 26.1239 3.78383 26.1239ZM1.91961 3.81294C1.91961 2.78806 2.75605 1.95304 3.78383 1.95304H18.049C19.0778 1.95304 19.9132 2.78802 19.9132 3.81294V23.2211C19.9132 24.246 19.0767 25.081 18.049 25.081L3.78383 25.081C2.75605 25.081 1.91961 24.246 1.91961 23.2211V3.81294Z" fill="white" stroke="white" stroke-width="0.25"/>
<path d="M7.17189 4.96755H14.6615C14.9496 4.96755 15.1833 4.73478 15.1833 4.44666C15.1833 4.15855 14.9496 3.92578 14.6615 3.92578H7.17189C6.88381 3.92578 6.65015 4.15855 6.65015 4.44666C6.65015 4.73478 6.88381 4.96755 7.17189 4.96755Z" fill="white" stroke="white" stroke-width="0.25"/>
<path d="M17.8765 7.46978C17.8763 7.18181 17.6427 6.94922 17.3547 6.94922H14.5379C14.2498 6.94922 14.0161 7.18198 14.0161 7.4701C14.0161 7.75822 14.2498 7.99098 14.5379 7.99098H17.3547C17.6435 7.99098 17.8778 7.75861 17.8765 7.46978ZM17.8765 7.46978C17.8765 7.46968 17.8765 7.46957 17.8765 7.46946L17.7515 7.4701H17.8765C17.8765 7.47 17.8765 7.46989 17.8765 7.46978Z" fill="white" stroke="white" stroke-width="0.25"/>
<path d="M4.47731 7.99098H11.8435C12.1316 7.99098 12.3652 7.75822 12.3652 7.4701C12.3652 7.18198 12.1316 6.94922 11.8435 6.94922H4.47731C4.18923 6.94922 3.95557 7.18198 3.95557 7.4701C3.95557 7.75822 4.18923 7.99098 4.47731 7.99098Z" fill="white" stroke="white" stroke-width="0.25"/>
<path d="M17.8763 10.4933C17.8761 10.2053 17.6425 9.97266 17.3545 9.97266H10.093C9.80495 9.97266 9.57129 10.2054 9.57129 10.4935C9.57129 10.7817 9.80495 11.0144 10.093 11.0144H17.3545C17.6433 11.0144 17.8776 10.7821 17.8763 10.4933ZM17.8763 10.4933C17.8763 10.4932 17.8763 10.493 17.8763 10.4929L17.7513 10.4935H17.8763C17.8763 10.4935 17.8763 10.4934 17.8763 10.4933Z" fill="white" stroke="white" stroke-width="0.25"/>
<path d="M4.47731 11.0144H7.38234C7.67043 11.0144 7.90409 10.7817 7.90409 10.4935C7.90409 10.2054 7.67043 9.97266 7.38234 9.97266H4.47731C4.18923 9.97266 3.95557 10.2054 3.95557 10.4935C3.95557 10.7817 4.18923 11.0144 4.47731 11.0144Z" fill="white" stroke="white" stroke-width="0.25"/>
<path d="M17.8766 13.5167C17.8765 13.2287 17.6429 12.9961 17.3549 12.9961H4.47731C4.18923 12.9961 3.95557 13.2289 3.95557 13.517C3.95557 13.8051 4.18923 14.0379 4.47731 14.0379H17.3549C17.6436 14.0379 17.8779 13.8055 17.8766 13.5167ZM17.8766 13.5167C17.8766 13.5166 17.8766 13.5165 17.8766 13.5163L17.7516 13.517H17.8766C17.8766 13.5169 17.8766 13.5168 17.8766 13.5167Z" fill="white" stroke="white" stroke-width="0.25"/>
<path d="M17.8764 16.5439C17.8762 16.256 17.6426 16.0234 17.3547 16.0234H11.689C11.4009 16.0234 11.1672 16.2562 11.1672 16.5443C11.1672 16.8324 11.4009 17.0652 11.689 17.0652H17.3547C17.6434 17.0652 17.8778 16.8328 17.8764 16.5439ZM17.8764 16.5439C17.8764 16.5439 17.8764 16.5438 17.8764 16.5437L17.7514 16.5443H17.8764C17.8764 16.5442 17.8764 16.5441 17.8764 16.5439Z" fill="white" stroke="white" stroke-width="0.25"/>
<path d="M17.8764 19.5654C17.8762 19.2775 17.6426 19.0449 17.3547 19.0449H11.689C11.4009 19.0449 11.1672 19.2777 11.1672 19.5658C11.1672 19.8539 11.4009 20.0867 11.689 20.0867H17.3547C17.6434 20.0867 17.8778 19.8543 17.8764 19.5654ZM17.8764 19.5654C17.8764 19.5653 17.8764 19.5653 17.8764 19.5652L17.7514 19.5658H17.8764C17.8764 19.5657 17.8764 19.5656 17.8764 19.5654Z" fill="white" stroke="white" stroke-width="0.25"/>
<path d="M11.689 23.1082H17.3547C17.6441 23.1082 17.8764 22.8752 17.8764 22.5873C17.8764 22.2992 17.6428 22.0664 17.3547 22.0664H11.689C11.4009 22.0664 11.1672 22.2992 11.1672 22.5873C11.1672 22.8754 11.4009 23.1082 11.689 23.1082Z" fill="white" stroke="white" stroke-width="0.25"/>
<path d="M7.56628 19.113C6.70669 18.7589 6.3419 18.5027 6.3419 17.9902C6.3419 17.5965 6.62843 17.1435 7.38884 17.1435C8.02142 17.1435 8.63305 17.4789 8.63305 17.4789C8.93833 17.6372 9.27117 16.9796 8.87993 16.829L6.91491 23.6162C6.91491 23.8702 7.5365 23.8768 7.53762 23.615V22.5901M7.56628 19.113C8.58348 19.5264 9.09706 20.0389 9.09706 20.9153C9.09706 21.6939 8.55374 22.423 7.53762 22.5901M7.56628 19.113L7.61335 18.9972C7.61344 18.9972 7.61353 18.9973 7.61362 18.9973M7.56628 19.113L7.61389 18.9974C7.6138 18.9974 7.61371 18.9973 7.61362 18.9973M7.53762 22.5901H7.66262V22.694M7.53762 22.5901L7.55791 22.7135C7.59334 22.7077 7.62825 22.7012 7.66262 22.694M7.61362 18.9973C7.18383 18.8202 6.89525 18.6741 6.71366 18.5166C6.54094 18.3667 6.4669 18.2084 6.4669 17.9902C6.4669 17.823 6.52769 17.645 6.66746 17.5087C6.80617 17.3735 7.03413 17.2685 7.38884 17.2685C7.68487 17.2685 7.98056 17.3474 8.20567 17.4287C8.31748 17.4691 8.41017 17.5095 8.47464 17.5397C8.50684 17.5547 8.5319 17.5672 8.54869 17.5758L8.56748 17.5855L8.57194 17.5879L8.57288 17.5884L8.57295 17.5885L8.57293 17.5885L8.57549 17.5898C8.69838 17.6536 8.8234 17.6316 8.9208 17.5719C9.01468 17.5142 9.0877 17.4203 9.13196 17.3205C9.17619 17.2207 9.19786 17.101 9.17097 16.9875C9.14292 16.8692 9.06368 16.7672 8.92903 16.7139L8.92408 16.7117L8.89987 16.7007C8.87893 16.6914 8.84864 16.6782 8.81053 16.6624C8.73439 16.6307 8.62674 16.5884 8.50008 16.5454C8.28088 16.4709 7.99818 16.3923 7.72102 16.3665V15.528C7.72102 15.4046 7.64911 15.3172 7.56464 15.2666C7.48314 15.2178 7.383 15.1974 7.29032 15.1973C7.19765 15.1972 7.09743 15.2175 7.01582 15.2663C6.93113 15.3169 6.85939 15.4044 6.85939 15.528V16.4192C5.95936 16.6046 5.3683 17.252 5.3683 18.109C5.3683 18.5735 5.53878 18.9334 5.84348 19.2255C6.14276 19.5124 6.56841 19.7312 7.07592 19.9296C7.43526 20.0752 7.69548 20.225 7.8652 20.3954C8.03049 20.5615 8.11243 20.7493 8.11243 20.9857C8.11243 21.2289 8.01103 21.4352 7.83302 21.583C7.65346 21.7322 7.38971 21.8262 7.06261 21.8262C6.81003 21.8262 6.47273 21.7277 6.18767 21.6223C6.04749 21.5705 5.92407 21.5186 5.83571 21.4796C5.79157 21.4602 5.7563 21.444 5.73218 21.4328L5.7047 21.4198L5.69779 21.4165L5.69615 21.4157L5.69578 21.4155L5.69574 21.4155L5.69576 21.4155L5.69219 21.4139C5.56568 21.357 5.43959 21.3697 5.3362 21.4265C5.23637 21.4814 5.16188 21.5745 5.11973 21.6764C5.07743 21.7787 5.06372 21.8996 5.09786 22.0147C5.13295 22.133 5.2162 22.2364 5.35001 22.3004L5.35 22.3005L5.35257 22.3016L5.404 22.1877L5.3526 22.3016L5.35266 22.3017L5.35284 22.3017L5.35345 22.302L5.35568 22.303L5.36406 22.3067L5.39572 22.3206C5.42312 22.3325 5.46271 22.3494 5.51194 22.3696C5.61033 22.4101 5.74762 22.4642 5.90328 22.5186C6.17067 22.6122 6.50447 22.7113 6.78991 22.7387V23.6162C6.78991 23.7402 6.86866 23.8235 6.95154 23.8694C7.03294 23.9144 7.13275 23.9336 7.2253 23.934C7.31779 23.9345 7.41812 23.9161 7.50022 23.8708C7.58462 23.8243 7.66209 23.7401 7.66262 23.6156V23.615V22.694M7.61362 18.9973C8.12991 19.2072 8.53289 19.4476 8.80682 19.7578C9.08437 20.0721 9.22206 20.4495 9.22206 20.9153C9.22206 21.7305 8.66957 22.4854 7.66262 22.694" fill="white" stroke="white" stroke-width="0.25"/>
<path d="M24.2848 25.7797L24.2847 25.7796L22.9017 21.9473C22.4842 20.7934 22.2649 19.4879 22.2649 18.1736L22.2649 2.41641C22.2649 1.99602 22.3876 1.61485 22.5958 1.33574C22.8044 1.0561 23.1031 0.875041 23.4468 0.875041L24.2848 25.7797ZM24.2848 25.7797C24.3599 25.9873 24.5555 26.125 24.7759 26.125M24.2848 25.7797L24.7759 26.125M24.7759 26.125C24.9954 26.125 25.1929 25.9881 25.2671 25.7805C25.2671 25.7804 25.2671 25.7804 25.2672 25.7803L26.6512 21.9485C27.0687 20.7945 27.2879 19.489 27.2879 18.1736L27.288 2.41637C27.288 1.99591 27.165 1.61474 26.9566 1.33567C26.7479 1.0561 26.4493 0.875 26.1061 0.875L23.4468 0.875041L24.7759 26.125ZM23.884 21.5952L23.8839 21.5951C23.5079 20.5552 23.3095 19.3711 23.3095 18.1736V2.41641C23.3095 2.24156 23.3505 2.10547 23.3965 2.0165C23.4197 1.9716 23.4428 1.94144 23.4599 1.92448C23.4626 1.92183 23.4649 1.91965 23.467 1.91789H26.0859C26.0879 1.91965 26.0903 1.92183 26.093 1.92448C26.1101 1.94144 26.1331 1.9716 26.1564 2.0165C26.2024 2.10547 26.2434 2.24156 26.2434 2.41641V18.1736C26.2434 19.3722 26.0449 20.5552 25.6689 21.5951L25.6689 21.5951L24.776 24.068L23.884 21.5952Z" fill="white" stroke="white" stroke-width="0.25"/>
<path d="M22.9807 20.7664H26.5448C26.8332 20.7664 27.0665 20.5322 27.0665 20.2455C27.0665 19.9574 26.8329 19.7246 26.5448 19.7246H22.9807C22.6926 19.7246 22.459 19.9574 22.459 20.2455C22.459 20.5336 22.6926 20.7664 22.9807 20.7664Z" fill="white" stroke="white" stroke-width="0.25"/>
<path d="M22.7881 4.65895H26.7665C27.0549 4.65895 27.2883 4.42488 27.2883 4.13807C27.2883 3.84995 27.0546 3.61719 26.7665 3.61719H22.7881C22.5 3.61719 22.2664 3.84995 22.2664 4.13807C22.2664 4.42619 22.5 4.65895 22.7881 4.65895Z" fill="white" stroke="white" stroke-width="0.25"/>
</svg>
