<svg width="27" height="27" viewBox="0 0 27 27" fill="none" xmlns="http://www.w3.org/2000/svg">
<g clip-path="url(#clip0_368_1432)">
<path fill-rule="evenodd" clip-rule="evenodd" d="M20.8075 18.2113V23.5387C20.8075 24.8962 19.7038 26 18.3463 26H3.46125C2.10375 26 1 24.8962 1 23.5387C1 16.2113 1 8.88375 1 1.55625C1 1.24875 1.24875 1 1.55625 1H20.25C20.5575 1 20.8075 1.24875 20.8075 1.55625V8.27H23.4525C24.8575 8.27 26 9.4125 26 10.8175V15.6637C26 17.0688 24.8575 18.2113 23.4525 18.2113H20.8075ZM19.6938 2.11375H2.11375V4.11625H11.9425C12.25 4.11625 12.4987 4.365 12.4987 4.6725C12.4987 4.98 12.25 5.22875 11.9425 5.22875H2.11375V12.9C3.0275 12.995 3.9 12.9425 4.775 12.6488C5.425 12.43 5.99375 12.0988 6.61625 11.8275C7.19125 11.575 7.73125 11.43 8.3625 11.43C8.64375 11.43 8.925 11.4587 9.19875 11.5138C9.81 11.6375 10.2387 11.87 10.7525 12.2037C11.2012 12.4962 11.4925 12.6725 12.0525 12.6613C12.3962 12.655 12.705 12.575 13.0162 12.4325C14.0588 11.9537 14.6012 11.2575 15.9062 11.42C16.5 11.4937 16.8437 11.7312 17.265 12.1275C17.4437 12.295 17.5938 12.445 17.84 12.505C18.4738 12.6613 19.2025 12.22 19.6938 11.85C19.6938 8.605 19.6938 5.35875 19.6938 2.11375ZM19.6938 13.1825C19.05 13.545 18.3088 13.7675 17.5725 13.5863C17.1175 13.4738 16.8325 13.25 16.5013 12.9375C16.2625 12.7125 16.1075 12.5675 15.7675 12.525C14.8912 12.415 14.175 13.1425 13.4 13.4812C12.9075 13.695 12.4075 13.795 11.87 13.7725C10.44 13.7125 10.0175 12.6962 8.68375 12.56C7.36125 12.4263 6.3025 13.3187 5.10625 13.7125C4.135 14.0312 3.1275 14.1125 2.11375 14.0188V23.5387C2.11375 24.2825 2.7175 24.8862 3.46125 24.8862H18.3463C19.09 24.8862 19.6938 24.2825 19.6938 23.5387C19.6938 20.0875 19.6963 16.635 19.6938 13.1825ZM7.78875 16.5787C8.6675 16.5787 9.38375 17.2938 9.38375 18.1737C9.38375 19.0525 8.6675 19.7687 7.78875 19.7687C6.90875 19.7687 6.1925 19.0525 6.1925 18.1737C6.1925 17.2938 6.90875 16.5787 7.78875 16.5787ZM13.5 15.02C14.38 15.02 15.095 15.7362 15.095 16.615C15.095 17.495 14.38 18.21 13.5 18.21C12.6213 18.21 11.905 17.495 11.905 16.615C11.905 15.7362 12.62 15.02 13.5 15.02ZM11.9425 20.2138C12.8225 20.2138 13.5375 20.9288 13.5375 21.8088C13.5375 22.6875 12.8225 23.4037 11.9425 23.4037C11.0625 23.4037 10.3475 22.6875 10.3475 21.8088C10.3475 20.9288 11.0625 20.2138 11.9425 20.2138ZM7.78875 18.655C8.05375 18.655 8.27 18.4387 8.27 18.1737C8.27 17.9075 8.05375 17.6912 7.78875 17.6912C7.5225 17.6912 7.30625 17.9075 7.30625 18.1737C7.30625 18.4387 7.5225 18.655 7.78875 18.655ZM13.5 17.0975C13.7662 17.0975 13.9825 16.8812 13.9825 16.615C13.9825 16.35 13.7662 16.1337 13.5 16.1337C13.235 16.1337 13.0188 16.35 13.0188 16.615C13.0188 16.8812 13.235 17.0975 13.5 17.0975ZM11.9425 22.29C12.2087 22.29 12.425 22.0737 12.425 21.8088C12.425 21.5425 12.2087 21.3263 11.9425 21.3263C11.6763 21.3263 11.46 21.5425 11.46 21.8088C11.46 22.0737 11.6763 22.29 11.9425 22.29ZM20.8075 9.38375C20.8075 11.955 20.8075 14.5262 20.8075 17.0975H23.4525C24.2437 17.0975 24.8862 16.4537 24.8862 15.6637V10.8175C24.8862 10.0262 24.2437 9.38375 23.4525 9.38375H20.8075Z" fill="white"/>
</g>
<rect x="0.875" y="0.875" width="25.25" height="25.25" stroke="white" stroke-width="0.25"/>
<defs>
<clipPath id="clip0_368_1432">
<rect x="1" y="1" width="25" height="25" fill="white"/>
</clipPath>
</defs>
</svg>
