<svg width="28" height="27" viewBox="0 0 28 27" fill="none" xmlns="http://www.w3.org/2000/svg">
<path d="M11.1998 12.0073C11.1583 11.6871 10.8641 11.4648 10.5456 11.5046L10.545 11.5046C9.89911 11.5888 9.22404 11.632 8.53846 11.632C6.61315 11.632 4.98421 11.3055 3.84019 10.836C3.26782 10.6011 2.82108 10.3322 2.51918 10.0541C2.21603 9.77481 2.0694 9.49659 2.0694 9.24146C2.0694 8.91938 1.8069 8.65781 1.4847 8.65781C1.16245 8.65781 0.9 8.91943 0.9 9.24146C0.9 10.2882 1.7582 11.178 3.11581 11.8006C4.4797 12.4262 6.37943 12.7992 8.53842 12.7992C9.27357 12.7992 9.99977 12.7535 10.6962 12.6609C11.0158 12.6197 11.2422 12.3269 11.1998 12.0073ZM11.1998 12.0073C11.1998 12.0072 11.1998 12.0071 11.1998 12.0071L11.1006 12.0203L11.1998 12.0075C11.1998 12.0074 11.1998 12.0073 11.1998 12.0073Z" fill="#1FC977" stroke="#1FC977" stroke-width="0.2"/>
<path d="M10.6266 17.7622L10.6261 17.7622C9.95076 17.8454 9.24865 17.888 8.53842 17.888C6.37942 17.888 4.4797 17.515 3.11581 16.8896C1.75823 16.267 0.9 15.3775 0.9 14.3313C0.9 14.0081 1.16259 13.7477 1.4847 13.7477C1.80677 13.7477 2.0694 14.0081 2.0694 14.3313C2.0694 14.5864 2.21603 14.8646 2.51918 15.1439C2.82108 15.422 3.26782 15.6909 3.84019 15.9258C4.98421 16.3953 6.61314 16.7218 8.53846 16.7218C9.20036 16.7218 9.85381 16.6817 10.4802 16.6037L10.6266 17.7622ZM10.6266 17.7622C10.9471 17.7211 11.1736 17.4307 11.1336 17.1101C11.0935 16.789 10.7974 16.5639 10.4804 16.6037L10.6266 17.7622Z" fill="#1FC977" stroke="#1FC977" stroke-width="0.2"/>
<path d="M10.5687 21.2574L10.5691 21.2574C10.8822 21.2175 11.1819 21.4383 11.2246 21.7599L10.5687 21.2574ZM10.5687 21.2574C9.91455 21.3436 9.23123 21.3878 8.53846 21.3878C6.61315 21.3878 4.98421 21.0613 3.84019 20.5918C3.26782 20.357 2.82108 20.088 2.51918 19.8099C2.21603 19.5307 2.0694 19.2524 2.0694 18.9973C2.0694 18.6752 1.8069 18.4137 1.4847 18.4137C1.16245 18.4137 0.9 18.6753 0.9 18.9973C0.9 20.044 1.7582 20.9338 3.11581 21.5565C4.4797 22.182 6.37943 22.5551 8.53842 22.5551C9.28209 22.5551 10.0166 22.5073 10.7211 22.4147L10.7212 22.4147M10.5687 21.2574L10.7212 22.4147M10.7212 22.4147C11.0418 22.3724 11.2672 22.0796 11.2246 21.7599L10.7212 22.4147Z" fill="#1FC977" stroke="#1FC977" stroke-width="0.2"/>
<path d="M16.1768 4.45675V4.4567C16.1768 3.4105 15.3186 2.52097 13.961 1.89845C12.5971 1.27303 10.6974 0.9 8.53842 0.9C6.37943 0.9 4.4797 1.27303 3.11581 1.89845C1.75823 2.52097 0.9 3.4105 0.9 4.4567C0.9 5.5034 1.7582 6.39321 3.11581 7.01587C4.4797 7.64142 6.37943 8.01445 8.53842 8.01445C10.6969 8.01445 12.5964 7.64142 13.9603 7.01587C15.3179 6.39321 16.1763 5.50342 16.1768 4.45675ZM2.06936 4.45775C2.06936 4.20263 2.21599 3.92441 2.51914 3.64516C2.82104 3.36705 3.26779 3.09812 3.84015 2.86323C4.98418 2.39375 6.61311 2.06726 8.53842 2.06726C10.4637 2.06726 12.0927 2.39375 13.2367 2.86323C13.809 3.09812 14.2558 3.36705 14.5577 3.64516C14.8608 3.92441 15.0075 4.20263 15.0075 4.45775C15.0075 4.71288 14.8608 4.9911 14.5577 5.27035C14.2558 5.54845 13.809 5.81739 13.2367 6.05227C12.0927 6.52175 10.4637 6.84825 8.53842 6.84825C6.61311 6.84825 4.98418 6.52175 3.84015 6.05227C3.26779 5.81739 2.82104 5.54845 2.51914 5.27035C2.21599 4.9911 2.06936 4.71288 2.06936 4.45775Z" fill="#1FC977" stroke="#1FC977" stroke-width="0.2"/>
<path d="M0.9 18.9951C0.9 19.3172 1.1625 19.5787 1.4847 19.5787C1.8069 19.5787 2.06939 19.3172 2.06944 18.9951V4.4563C2.06944 4.13422 1.80694 3.87266 1.48474 3.87266C1.16249 3.87266 0.900039 4.13427 0.900039 4.4563L0.9 18.9951Z" fill="#1FC977" stroke="#1FC977" stroke-width="0.2"/>
<path d="M12.4049 17.5735C12.4049 18.6197 13.2631 19.5092 14.6207 20.1317C15.9846 20.7572 17.8843 21.1302 20.0433 21.1302C22.2023 21.1302 24.102 20.7572 25.4659 20.1317C26.8235 19.5092 27.6818 18.6197 27.6818 17.5735C27.6818 17.2503 27.4192 16.9898 27.0971 16.9898C26.775 16.9898 26.5124 17.2503 26.5124 17.5735C26.5124 17.8286 26.3658 18.1068 26.0626 18.3861C25.7607 18.6642 25.314 18.9331 24.7416 19.168C23.5976 19.6375 21.9686 19.964 20.0433 19.964C18.118 19.964 16.4891 19.6375 15.3451 19.168C14.7727 18.9331 14.326 18.6642 14.0241 18.3861C13.7209 18.1068 13.5743 17.8286 13.5743 17.5735C13.5743 17.2503 13.3116 16.9898 12.9896 16.9898C12.6675 16.9898 12.4049 17.2503 12.4049 17.5735Z" fill="#1FC977" stroke="#1FC977" stroke-width="0.2"/>
<path d="M12.4049 22.5422C12.4049 23.5884 13.2631 24.478 14.6207 25.1005C15.9846 25.7259 17.8843 26.0989 20.0433 26.0989C22.2023 26.0989 24.102 25.7259 25.4659 25.1005C26.8235 24.478 27.6818 23.5884 27.6818 22.5422C27.6818 22.219 27.4192 21.9586 27.0971 21.9586C26.775 21.9586 26.5124 22.219 26.5124 22.5422C26.5124 22.7974 26.3658 23.0756 26.0626 23.3548C25.7607 23.6329 25.314 23.9019 24.7416 24.1368C23.5976 24.6062 21.9686 24.9327 20.0433 24.9327C18.118 24.9327 16.4891 24.6062 15.3451 24.1368C14.7727 23.9019 14.326 23.6329 14.0241 23.3548C13.7209 23.0756 13.5743 22.7974 13.5743 22.5422C13.5743 22.219 13.3116 21.9586 12.9896 21.9586C12.6675 21.9586 12.4049 22.219 12.4049 22.5422Z" fill="#1FC977" stroke="#1FC977" stroke-width="0.2"/>
<path d="M12.4049 12.6051C12.4049 13.6518 13.2631 14.5416 14.6207 15.1643C15.9846 15.7899 17.8843 16.1629 20.0433 16.1629C22.2023 16.1629 24.102 15.7899 25.4659 15.1643C26.8235 14.5416 27.6817 13.6518 27.6817 12.6051C27.6817 11.5589 26.8235 10.6694 25.4659 10.0469C24.102 9.42147 22.2023 9.04844 20.0433 9.04844C17.8843 9.04844 15.9846 9.42147 14.6207 10.0469C13.2631 10.6694 12.4049 11.5589 12.4049 12.6051ZM13.5742 12.6052C13.5742 12.35 13.7209 12.0718 14.024 11.7926C14.3259 11.5145 14.7727 11.2455 15.345 11.0107C16.4891 10.5412 18.118 10.2147 20.0433 10.2147C21.9686 10.2147 23.5976 10.5414 24.7416 11.011C25.314 11.246 25.7607 11.515 26.0626 11.793C26.3658 12.0722 26.5124 12.3503 26.5124 12.6052C26.5124 12.8603 26.3657 13.1385 26.0626 13.4178C25.7607 13.6959 25.3139 13.9648 24.7416 14.1997C23.5975 14.6692 21.9686 14.9957 20.0433 14.9957C18.118 14.9957 16.4891 14.6692 15.345 14.1997C14.7727 13.9648 14.3259 13.6959 14.024 13.4178C13.7209 13.1385 13.5742 12.8603 13.5742 12.6052Z" fill="#1FC977" stroke="#1FC977" stroke-width="0.2"/>
<path d="M26.5123 22.5389C26.5123 22.861 26.7748 23.1225 27.097 23.1225C27.4191 23.1225 27.6817 22.8621 27.6817 22.5389V12.6028C27.6817 12.2807 27.4192 12.0191 27.097 12.0191C26.7748 12.0191 26.5123 12.2808 26.5123 12.6028V22.5389Z" fill="#1FC977" stroke="#1FC977" stroke-width="0.2"/>
<path d="M12.4049 22.5389C12.4049 22.861 12.6674 23.1225 12.9896 23.1225C13.3128 23.1225 13.5742 22.862 13.5743 22.5389V12.6028C13.5743 12.2807 13.3118 12.0191 12.9896 12.0191C12.6673 12.0191 12.4049 12.2808 12.4049 12.6028V22.5389Z" fill="#1FC977" stroke="#1FC977" stroke-width="0.2"/>
</svg>
