<svg width="28" height="28" viewBox="0 0 28 28" fill="none" xmlns="http://www.w3.org/2000/svg">
<path d="M20.8914 4.87891C20.0065 4.87891 19.2886 5.59685 19.2886 6.48177C19.2886 7.36669 20.0065 8.08465 20.8914 8.08465C21.7763 8.08465 22.4943 7.36669 22.4943 6.48177C22.4943 5.59685 21.7763 4.87891 20.8914 4.87891Z" fill="#BCB4A5"/>
<path d="M13.7718 6.93164C10.0618 6.93164 7.04639 9.95038 7.04639 13.657C7.04639 17.3637 10.0652 20.3824 13.7718 20.3824C17.4784 20.3824 20.4971 17.3637 20.4971 13.657C20.4971 9.95038 17.4784 6.93164 13.7718 6.93164ZM13.7718 17.9681C11.3942 17.9681 9.46405 16.0346 9.46405 13.6604C9.46405 11.2861 11.3976 9.35264 13.7718 9.35264C16.1461 9.35264 18.0795 11.2861 18.0795 13.6604C18.0795 16.0346 16.1461 17.9681 13.7718 17.9681Z" fill="#BCB4A5"/>
<path d="M19.1109 27.3156H8.20463C3.67986 27.3156 0 23.6357 0 19.1109V8.20469C0 3.67992 3.67986 0 8.20463 0H19.1109C23.6356 0 27.3156 3.67992 27.3156 8.20469V19.1109C27.3156 23.6357 23.6356 27.3156 19.1109 27.3156ZM8.20463 2.57127C5.09907 2.57127 2.57125 5.09913 2.57125 8.20469V19.1109C2.57125 22.2164 5.09907 24.7443 8.20463 24.7443H19.1109C22.2164 24.7443 24.7443 22.2164 24.7443 19.1109V8.20469C24.7443 5.09579 22.2164 2.57127 19.1109 2.57127H8.20463Z" fill="#BCB4A5"/>
</svg>
