<svg width="28" height="28" viewBox="0 0 28 28" fill="none" xmlns="http://www.w3.org/2000/svg">
<path d="M14.8644 21.4711L17.585 18.7504C18.1418 18.1936 19.0178 18.1162 19.6636 18.5666L23.2686 21.0809C23.9804 21.5773 24.0705 22.5965 23.4569 23.2101V23.2101C22.4667 24.2003 21.0447 24.6303 19.7178 24.1828C17.2514 23.351 13.1045 21.5528 9.63879 18.087C6.17304 14.6213 4.37484 10.4744 3.54304 8.00804C3.09554 6.68115 3.52552 5.25915 4.51569 4.26897V4.26897C5.12934 3.65533 6.1485 3.74544 6.64494 4.45725L9.15919 8.06218C9.60966 8.70807 9.53221 9.584 8.97539 10.1408L6.25474 12.8615" stroke="#BCB4A5" stroke-width="1.625" stroke-linecap="round"/>
</svg>
