<svg width="29" height="23" viewBox="0 0 29 23" fill="none" xmlns="http://www.w3.org/2000/svg">
<path fill-rule="evenodd" clip-rule="evenodd" d="M2.22319 9.83855C9.67264 6.6133 14.6401 4.48703 17.1256 3.45971C24.2222 0.526529 25.6968 0.0170042 26.6579 0.00017939C26.8693 -0.00352105 27.3419 0.0485391 27.6481 0.295412C27.9066 0.503868 27.9777 0.78546 28.0118 0.983099C28.0458 1.18074 28.0882 1.63096 28.0545 1.98276C27.6699 5.99806 26.0059 15.7421 25.1594 20.2394C24.8012 22.1423 24.0959 22.7803 23.413 22.8428C21.9291 22.9785 20.8022 21.8682 19.3649 20.932C17.1159 19.467 15.8453 18.555 13.6622 17.1253C11.1392 15.4732 12.7747 14.5651 14.2126 13.0811C14.5889 12.6927 21.1272 6.78292 21.2538 6.24681C21.2696 6.17976 21.2843 5.92983 21.1349 5.79786C20.9854 5.66588 20.7649 5.71101 20.6058 5.7469C20.3802 5.79778 16.7873 8.15766 9.82704 12.8266C8.8072 13.5225 7.88347 13.8615 7.05583 13.8438C6.14343 13.8242 4.38833 13.3311 3.0836 12.9096C1.48329 12.3927 0.211399 12.1194 0.322153 11.2415C0.37984 10.7842 1.01352 10.3166 2.22319 9.83855Z" fill="#BCB4A5"/>
</svg>
