<svg width="130" height="25" viewBox="0 0 130 25" fill="none" xmlns="http://www.w3.org/2000/svg">
<path d="M0 21.9399H4.00878C4.85768 19.9634 6.37256 18.58 8.84353 17.7799H4.66604V13.0345H10.2033C12.6609 13.0345 13.7497 13.9281 13.7497 15.3765C13.7497 15.6681 13.7103 15.931 13.6344 16.1669C15.1747 15.4094 16.2341 14.4796 17.0189 12.8033L17.2215 12.3709C16.5298 11.6348 15.582 11.0972 14.434 10.6619C15.9894 9.79902 17.296 8.44323 17.296 6.0089C17.296 4.46818 16.7982 3.2664 15.8027 2.28033C14.5584 1.04778 12.5985 0.369898 10.11 0.369898H0V21.9399ZM4.66604 9.09037V4.5297H9.39457C11.4166 4.5297 12.5364 5.33102 12.5364 6.74832C12.5364 8.41248 11.1988 9.09037 9.08345 9.09037H4.66604ZM22.4597 21.9399H27.1572V7.9501L33.2232 17.0713H33.3476L39.4759 7.85763V21.9399H44.2354V0.369898H39.0714L33.3476 9.49084L27.6238 0.369898H22.4597V21.9399ZM49.4614 21.9399H66.042V17.7184H54.221V13.1887H64.4866V8.96713H54.221V4.59142H65.8866V0.369898H49.4614V21.9399ZM80.5071 22.3096C84.7068 22.3096 87.1954 21.0155 89.4351 18.6427L86.3866 15.4073C84.6755 16.948 83.1514 17.9341 80.6626 17.9341C76.9297 17.9341 74.3478 14.8526 74.3478 11.1548C74.3478 7.39545 76.9918 4.37571 80.6626 4.37571C83.1514 4.37571 84.5822 5.26931 86.2622 6.77928L89.124 3.51287C87.102 1.54072 84.7999 0 80.6938 0C74.0056 0 69.3394 5.02284 69.3394 11.1548C69.3394 17.4102 74.0988 22.3096 80.5071 22.3096ZM98.3321 21.9399H103.123V4.74542H109.749V0.369898H91.7059V4.74542H98.3321V21.9399ZM113.419 21.9399H130V17.7184H118.179V13.1887H128.445V8.96713H118.179V4.59142H129.845V0.369898H113.419V21.9399Z" fill="#2B2A29"/>
<path fill-rule="evenodd" clip-rule="evenodd" d="M4.23389 24.9998C5.20483 24.1689 6.05196 23.6384 8.01046 22.9717C10.7979 22.0616 12.9231 21.8735 14.4758 21.399C17.6778 20.3671 18.5708 18.4772 18.5386 16.0597C18.531 15.1348 18.2941 14.095 17.9161 13.2153C16.855 15.4818 15.3195 16.5237 13.4845 17.3178C12.6197 17.7082 11.3673 18.0035 9.1972 18.6957C5.94219 19.7341 4.64331 21.8157 4.23389 24.9998Z" fill="url(#paint0_linear_143_165)"/>
<defs>
<linearGradient id="paint0_linear_143_165" x1="3.61402" y1="20.0185" x2="18.8368" y2="18.1244" gradientUnits="userSpaceOnUse">
<stop stop-color="#009846"/>
<stop offset="1" stop-color="#8CBE2E"/>
</linearGradient>
</defs>
</svg>
