<svg width="29" height="30" viewBox="0 0 29 30" fill="none" xmlns="http://www.w3.org/2000/svg">
<g clip-path="url(#clip0_368_770)">
<path d="M25.1544 2.92231C24.4208 2.23643 21.4557 0.0493212 14.8515 0.0196222C14.8515 0.0196222 7.06427 -0.458001 3.26785 3.08123C1.15483 5.22889 0.411297 8.37045 0.332601 12.2679C0.254819 16.1653 0.152595 23.4665 7.07964 25.4472L7.08599 25.4489L7.08236 28.4702C7.08236 28.4702 7.03893 29.6939 7.83044 29.9426C8.78927 30.2451 9.35188 29.315 10.2673 28.313C10.7702 27.7636 11.4631 26.9555 11.9859 26.3378C16.724 26.7409 20.3675 25.8162 20.7809 25.6797C21.7379 25.3637 27.1508 24.6598 28.0309 17.3586C28.9391 9.83025 27.5904 5.06999 25.1544 2.92231ZM25.973 16.8144C25.2286 22.9117 20.8397 23.2968 20.031 23.5607C19.6864 23.673 16.4852 24.482 12.4617 24.2144L8.10001 29.0124L8.09549 23.4835L8.06113 23.4746C2.20142 21.8208 2.39859 15.6203 2.46463 12.3657C2.53067 9.11109 3.1322 6.4445 4.9205 4.65159C8.13078 1.69591 14.7457 2.13769 14.7457 2.13769C20.3322 2.16281 23.0097 3.87137 23.6302 4.44417C25.6908 6.2381 26.741 10.5288 25.973 16.8144Z" fill="#BCB4A5"/>
<path d="M20.9294 17.7248C20.9266 17.7221 20.0411 16.9724 19.6087 16.6492C19.2008 16.3448 18.5504 15.9354 18.1868 15.7271C17.5346 15.3581 16.8679 15.5897 16.5929 15.9525L16.0213 16.6825C15.7282 17.0524 15.2769 16.9904 15.1583 16.9662C14.3135 16.756 13.4153 16.2317 12.4962 15.3482C11.5664 14.4568 11.0037 13.5257 10.8029 12.5578L10.7884 12.494C10.7341 12.0963 10.8011 11.9122 10.9648 11.6412L10.9956 11.616C11.3818 11.2595 12.0974 10.8259 12.1932 10.4128C12.4745 9.6955 11.2534 8.19976 11.0788 7.93579C11.0788 7.93579 10.1906 6.76859 9.87488 6.54589C9.53383 6.26401 9.00557 6.10328 8.47281 6.42833L8.44565 6.44803C6.91517 7.47604 6.36066 8.06683 6.51173 8.94856L6.5904 9.30313C7.36651 11.7318 8.86534 14.3211 11.1005 16.6268C13.3112 18.9037 15.7028 20.2675 18.0601 21.212C18.6725 21.414 19.3075 21.2398 19.9588 20.6877L19.9696 20.6795C20.469 20.2163 20.8643 19.7207 21.1591 19.19L21.1618 19.1793C21.4486 18.6181 21.3518 18.0866 20.9294 17.7248Z" fill="#BCB4A5"/>
<path d="M17.2596 12.4066C17.1664 12.4066 17.0886 12.3321 17.0841 12.2369C17.0533 11.6075 16.8824 11.1254 16.5757 10.8031C16.2709 10.4834 15.8141 10.3048 15.2189 10.2724C15.1221 10.267 15.0471 10.1827 15.0525 10.0839C15.0579 9.98516 15.1402 9.90976 15.2379 9.91425C15.9254 9.95196 16.46 10.1674 16.829 10.5544C17.1962 10.9404 17.4007 11.4998 17.436 12.2189C17.4405 12.3177 17.3654 12.4012 17.2687 12.4066H17.2596Z" fill="#BCB4A5"/>
<path d="M19.0038 12.9989H18.9993C18.9025 12.9962 18.8256 12.9145 18.8275 12.8157C18.8545 11.6073 18.4991 10.5855 17.77 9.77753C17.4073 9.37435 16.9667 9.05569 16.4593 8.83031C15.951 8.60494 15.3585 8.46583 14.7 8.41641C14.6032 8.40918 14.5299 8.32306 14.5371 8.22522C14.5444 8.12645 14.6285 8.05192 14.7253 8.05907C16.1309 8.16416 17.2427 8.6606 18.0305 9.53601C18.822 10.4132 19.2092 11.5202 19.1802 12.8239C19.1775 12.9217 19.0988 12.9989 19.0038 12.9989Z" fill="#BCB4A5"/>
<path d="M20.7895 13.7088C20.6927 13.7088 20.6141 13.6298 20.6131 13.531C20.605 12.4627 20.4431 11.4965 20.1301 10.658C19.8189 9.8257 19.3495 9.09397 18.7344 8.48346C18.1184 7.87381 17.4183 7.40872 16.653 7.10073C15.8859 6.79189 15.0311 6.63215 14.1121 6.62582C14.0153 6.62492 13.9366 6.54413 13.9375 6.44536C13.9384 6.34662 14.0171 6.26758 14.1139 6.26758H14.1148C16.0442 6.28197 17.6805 6.94099 18.9804 8.22756C19.6325 8.87399 20.1301 9.64882 20.4593 10.5314C20.7868 11.4086 20.9569 12.4177 20.9659 13.5283C20.9668 13.6271 20.8881 13.7079 20.7913 13.7088H20.7895Z" fill="#BCB4A5"/>
</g>
<defs>
<clipPath id="clip0_368_770">
<rect width="28" height="30" fill="white" transform="translate(0.31543)"/>
</clipPath>
</defs>
</svg>
